<svg width="12" height="7" viewBox="0 0 12 7" fill="none" xmlns="http://www.w3.org/2000/svg">
<path d="M5.99995 0.024219C6.13328 0.024219 6.26262 0.0492198 6.38795 0.0992198C6.51328 0.14922 6.61728 0.215886 6.69995 0.29922L11.3 4.89922C11.4833 5.08255 11.575 5.31589 11.575 5.59922C11.575 5.88255 11.4833 6.11589 11.3 6.29922C11.1166 6.48255 10.8833 6.57422 10.6 6.57422C10.3166 6.57422 10.0833 6.48255 9.89995 6.29922L5.99995 2.39922L2.09995 6.29922C1.91662 6.48255 1.68328 6.57422 1.39995 6.57422C1.11662 6.57422 0.883285 6.48255 0.699952 6.29922C0.516619 6.11589 0.424951 5.88255 0.424951 5.59922C0.42495 5.31589 0.516619 5.08255 0.699952 4.89922L5.29995 0.29922C5.39995 0.19922 5.50828 0.128219 5.62495 0.0862194C5.74162 0.0442193 5.86662 0.0235524 5.99995 0.024219Z" fill="#5E44F8"/>
</svg>
