<svg width="46" height="46" viewBox="0 0 46 46" fill="none" xmlns="http://www.w3.org/2000/svg">
<rect width="46" height="46" rx="8" fill="#553772"/>
<g clip-path="url(#clip0_1518_82641)">
<path d="M31.6696 19.1226L23.9746 16.8782L23.9698 16.8768L15.1695 14.31C14.9459 14.2448 14.7102 14.2325 14.4811 14.2742C14.252 14.3159 14.0358 14.4103 13.8495 14.55C13.6632 14.6897 13.512 14.8709 13.4078 15.0792C13.3037 15.2875 13.2495 15.5172 13.2495 15.75V28.75C13.2498 29.1471 13.4073 29.5279 13.6876 29.8092C13.9679 30.0905 14.3482 30.2494 14.7453 30.2512C14.8889 30.251 15.0317 30.2304 15.1696 30.19L23.0001 27.9061V29C23.0005 29.3977 23.1587 29.779 23.4399 30.0602C23.7211 30.3414 24.1024 30.4995 24.5001 30.5H27.5001C27.8977 30.4995 28.279 30.3414 28.5602 30.0602C28.8414 29.779 28.9996 29.3977 29.0001 29V26.1561L31.6695 25.3775C31.9804 25.2856 32.2534 25.0958 32.448 24.8364C32.6425 24.577 32.7483 24.2618 32.7495 23.9375V20.5625C32.7483 20.2383 32.6426 19.9231 32.448 19.6637C32.2535 19.4043 31.9805 19.2145 31.6696 19.1226ZM27.5001 29H24.5001V27.4686L27.5001 26.5936V29ZM31.2495 23.9375L28.0289 24.8768L28.0262 24.8776L24.5001 25.9061V18.5939L31.2495 20.5625V23.9375Z" fill="white"/>
</g>
<defs>
<clipPath id="clip0_1518_82641">
<rect width="24" height="24" fill="white" transform="translate(11 11)"/>
</clipPath>
</defs>
</svg>
