<svg width="30" height="30" viewBox="0 0 30 30" fill="none" xmlns="http://www.w3.org/2000/svg">
<g clip-path="url(#clip0_1999_32837)">
<path d="M20.625 7.5C22.6141 7.5 24.5218 8.29018 25.9283 9.6967C27.3348 11.1032 28.125 13.0109 28.125 15C28.125 16.9891 27.3348 18.8968 25.9283 20.3033C24.5218 21.7098 22.6141 22.5 20.625 22.5H15C16.1652 21.6276 17.1109 20.4954 17.7618 19.1934C18.4128 17.8915 18.7512 16.4556 18.75 15C18.7512 13.5444 18.4128 12.1085 17.7618 10.8066C17.1109 9.50463 16.1652 8.37244 15 7.5H20.625ZM9.375 22.5C7.38588 22.5 5.47822 21.7098 4.0717 20.3033C2.66518 18.8968 1.875 16.9891 1.875 15C1.875 13.0109 2.66518 11.1032 4.0717 9.6967C5.47822 8.29018 7.38588 7.5 9.375 7.5C11.3641 7.5 13.2718 8.29018 14.6783 9.6967C16.0848 11.1032 16.875 13.0109 16.875 15C16.875 16.9891 16.0848 18.8968 14.6783 20.3033C13.2718 21.7098 11.3641 22.5 9.375 22.5ZM0 15C0 17.4864 0.98772 19.871 2.74587 21.6291C4.50403 23.3873 6.8886 24.375 9.375 24.375H20.625C23.1114 24.375 25.496 23.3873 27.2541 21.6291C29.0123 19.871 30 17.4864 30 15C30 12.5136 29.0123 10.129 27.2541 8.37087C25.496 6.61272 23.1114 5.625 20.625 5.625H9.375C6.8886 5.625 4.50403 6.61272 2.74587 8.37087C0.98772 10.129 0 12.5136 0 15Z" fill="#5E44F8"/>
</g>
<defs>
<clipPath id="clip0_1999_32837">
<rect width="30" height="30" fill="white"/>
</clipPath>
</defs>
</svg>
