<svg width="25" height="25" viewBox="0 0 25 25" fill="none" xmlns="http://www.w3.org/2000/svg">
<path d="M19.3624 9.01484L15.1124 4.81484L16.5124 3.41484C16.8957 3.03151 17.3667 2.83984 17.9254 2.83984C18.4834 2.83984 18.954 3.03151 19.3374 3.41484L20.7374 4.81484C21.1207 5.19818 21.3207 5.66084 21.3374 6.20284C21.354 6.74418 21.1707 7.20651 20.7874 7.58984L19.3624 9.01484ZM4.06238 21.0898C3.77904 21.0898 3.54171 20.9938 3.35038 20.8018C3.15838 20.6105 3.06238 20.3732 3.06238 20.0898V17.2648C3.06238 17.1315 3.08738 17.0025 3.13738 16.8778C3.18738 16.7525 3.26238 16.6398 3.36238 16.5398L13.6624 6.23984L17.9124 10.4898L7.61238 20.7898C7.51238 20.8898 7.40004 20.9648 7.27538 21.0148C7.15004 21.0648 7.02071 21.0898 6.88738 21.0898H4.06238Z" fill="#8DB776"/>
</svg>
