<svg width="120" height="117" viewBox="0 0 120 117" fill="none" xmlns="http://www.w3.org/2000/svg">
<mask id="path-1-outside-1_1518_76907" maskUnits="userSpaceOnUse" x="0" y="0" width="120" height="99" fill="black">
<rect fill="white" width="120" height="99"/>
<path d="M117 60C117 50.8425 114.794 41.8197 110.568 33.6956C106.342 25.5715 100.22 18.5852 92.7221 13.3281C85.2239 8.07104 76.5694 4.69795 67.4913 3.49442C58.4132 2.29088 49.1787 3.29233 40.5697 6.41397C31.9606 9.53562 24.2304 14.6856 18.0335 21.4278C11.8365 28.1701 7.35529 36.3062 4.96909 45.1474C2.5829 53.9886 2.36201 63.2746 4.32513 72.2192C6.28825 81.1638 10.3776 89.5038 16.2469 96.5331L60 60H117Z"/>
</mask>
<path d="M117 60C117 50.8425 114.794 41.8197 110.568 33.6956C106.342 25.5715 100.22 18.5852 92.7221 13.3281C85.2239 8.07104 76.5694 4.69795 67.4913 3.49442C58.4132 2.29088 49.1787 3.29233 40.5697 6.41397C31.9606 9.53562 24.2304 14.6856 18.0335 21.4278C11.8365 28.1701 7.35529 36.3062 4.96909 45.1474C2.5829 53.9886 2.36201 63.2746 4.32513 72.2192C6.28825 81.1638 10.3776 89.5038 16.2469 96.5331L60 60H117Z" stroke="#F7284A" stroke-width="4.8169" stroke-linejoin="round" mask="url(#path-1-outside-1_1518_76907)"/>
<circle cx="60" cy="60" r="57" fill="white"/>
<path d="M42.8554 71.7461L50.8594 57.8741H42.0154V54.9461H54.2554V57.8741L46.2274 71.7461H42.8554ZM61.9907 72.0581C61.0147 72.0581 60.1267 71.8341 59.3267 71.3861C58.5267 70.9301 57.8347 70.3021 57.2507 69.5021C56.6747 68.7021 56.2307 67.7781 55.9187 66.7301C55.6067 65.6741 55.4507 64.5461 55.4507 63.3461C55.4507 62.1461 55.6067 61.0221 55.9187 59.9741C56.2307 58.9181 56.6747 57.9901 57.2507 57.1901C57.8347 56.3901 58.5267 55.7661 59.3267 55.3181C60.1267 54.8621 61.0147 54.6341 61.9907 54.6341C62.9667 54.6341 63.8547 54.8621 64.6547 55.3181C65.4547 55.7661 66.1387 56.3901 66.7067 57.1901C67.2827 57.9901 67.7267 58.9181 68.0387 59.9741C68.3587 61.0221 68.5187 62.1461 68.5187 63.3461C68.5187 64.5461 68.3587 65.6741 68.0387 66.7301C67.7267 67.7781 67.2827 68.7021 66.7067 69.5021C66.1387 70.3021 65.4547 70.9301 64.6547 71.3861C63.8547 71.8341 62.9667 72.0581 61.9907 72.0581ZM61.9907 69.1301C62.8467 69.1301 63.5547 68.8581 64.1147 68.3141C64.6747 67.7701 65.0907 67.0581 65.3627 66.1781C65.6347 65.2981 65.7707 64.3541 65.7707 63.3461C65.7707 62.2821 65.6267 61.3141 65.3387 60.4421C65.0507 59.5621 64.6267 58.8621 64.0667 58.3421C63.5067 57.8221 62.8147 57.5621 61.9907 57.5621C61.3427 57.5621 60.7787 57.7221 60.2987 58.0421C59.8267 58.3541 59.4347 58.7821 59.1227 59.3261C58.8107 59.8701 58.5787 60.4901 58.4267 61.1861C58.2747 61.8741 58.1987 62.5941 58.1987 63.3461C58.1987 64.3461 58.3347 65.2901 58.6067 66.1781C58.8867 67.0581 59.3067 67.7701 59.8667 68.3141C60.4347 68.8581 61.1427 69.1301 61.9907 69.1301ZM71.7465 71.7461L81.4425 54.9461H84.8265L75.1305 71.7461H71.7465ZM73.8105 62.2301C73.1545 62.2301 72.5505 62.0741 71.9985 61.7621C71.4545 61.4421 71.0185 61.0101 70.6905 60.4661C70.3625 59.9221 70.1985 59.3141 70.1985 58.6421C70.1985 57.9541 70.3625 57.3381 70.6905 56.7941C71.0265 56.2501 71.4665 55.8221 72.0105 55.5101C72.5625 55.1981 73.1625 55.0421 73.8105 55.0421C74.4665 55.0421 75.0665 55.2021 75.6105 55.5221C76.1545 55.8421 76.5865 56.2741 76.9065 56.8181C77.2345 57.3621 77.3985 57.9701 77.3985 58.6421C77.3985 59.3221 77.2305 59.9341 76.8945 60.4781C76.5665 61.0221 76.1305 61.4501 75.5865 61.7621C75.0425 62.0741 74.4505 62.2301 73.8105 62.2301ZM73.8105 60.2261C74.2425 60.2261 74.6145 60.0741 74.9265 59.7701C75.2385 59.4581 75.3945 59.0821 75.3945 58.6421C75.3945 58.1941 75.2385 57.8181 74.9265 57.5141C74.6145 57.2101 74.2425 57.0581 73.8105 57.0581C73.3705 57.0581 72.9905 57.2101 72.6705 57.5141C72.3585 57.8181 72.2025 58.1941 72.2025 58.6421C72.2025 59.0821 72.3585 59.4581 72.6705 59.7701C72.9905 60.0741 73.3705 60.2261 73.8105 60.2261ZM82.7625 71.6621C82.0985 71.6621 81.4945 71.4981 80.9505 71.1701C80.4065 70.8341 79.9745 70.3941 79.6545 69.8501C79.3345 69.2981 79.1745 68.7061 79.1745 68.0741C79.1745 67.3861 79.3385 66.7701 79.6665 66.2261C80.0025 65.6821 80.4425 65.2541 80.9865 64.9421C81.5385 64.6221 82.1305 64.4621 82.7625 64.4621C83.4505 64.4621 84.0665 64.6301 84.6105 64.9661C85.1545 65.3021 85.5825 65.7461 85.8945 66.2981C86.2145 66.8421 86.3745 67.4341 86.3745 68.0741C86.3745 68.7301 86.2105 69.3301 85.8825 69.8741C85.5625 70.4181 85.1265 70.8541 84.5745 71.1821C84.0305 71.5021 83.4265 71.6621 82.7625 71.6621ZM82.7625 69.6581C83.2105 69.6581 83.5905 69.5021 83.9025 69.1901C84.2145 68.8781 84.3705 68.5061 84.3705 68.0741C84.3705 67.6261 84.2145 67.2461 83.9025 66.9341C83.5905 66.6221 83.2105 66.4661 82.7625 66.4661C82.3305 66.4661 81.9585 66.6221 81.6465 66.9341C81.3345 67.2461 81.1785 67.6261 81.1785 68.0741C81.1785 68.5061 81.3345 68.8781 81.6465 69.1901C81.9585 69.5021 82.3305 69.6581 82.7625 69.6581Z" fill="#F7284A"/>
<circle cx="17.4509" cy="98.5358" r="5.21831" fill="white" stroke="#F7284A" stroke-width="2.40845"/>
</svg>
