<svg width="120" height="117" viewBox="0 0 120 117" fill="none" xmlns="http://www.w3.org/2000/svg">
<mask id="path-1-outside-1_1518_77027" maskUnits="userSpaceOnUse" x="0" y="0" width="120" height="99" fill="black">
<rect fill="white" width="120" height="99"/>
<path d="M117 60C117 50.8425 114.794 41.8197 110.568 33.6956C106.342 25.5715 100.22 18.5852 92.7221 13.3281C85.2239 8.07104 76.5694 4.69795 67.4913 3.49442C58.4132 2.29088 49.1787 3.29233 40.5697 6.41397C31.9606 9.53562 24.2304 14.6856 18.0335 21.4278C11.8365 28.1701 7.35529 36.3062 4.96909 45.1474C2.5829 53.9886 2.36201 63.2746 4.32513 72.2192C6.28825 81.1638 10.3776 89.5038 16.2469 96.5331L60 60H117Z"/>
</mask>
<path d="M117 60C117 50.8425 114.794 41.8197 110.568 33.6956C106.342 25.5715 100.22 18.5852 92.7221 13.3281C85.2239 8.07104 76.5694 4.69795 67.4913 3.49442C58.4132 2.29088 49.1787 3.29233 40.5697 6.41397C31.9606 9.53562 24.2304 14.6856 18.0335 21.4278C11.8365 28.1701 7.35529 36.3062 4.96909 45.1474C2.5829 53.9886 2.36201 63.2746 4.32513 72.2192C6.28825 81.1638 10.3776 89.5038 16.2469 96.5331L60 60H117Z" stroke="#D88913" stroke-width="4.8169" stroke-linejoin="round" mask="url(#path-1-outside-1_1518_77027)"/>
<circle cx="60" cy="60" r="57" fill="white"/>
<path d="M48.0634 72.0581C47.0314 72.0581 46.0954 71.8221 45.2554 71.3501C44.4154 70.8781 43.7434 70.2461 43.2394 69.4541C42.7434 68.6541 42.4954 67.7661 42.4954 66.7901C42.4954 66.0221 42.6674 65.3021 43.0114 64.6301C43.3634 63.9501 43.8354 63.3781 44.4274 62.9141C43.9634 62.4901 43.5834 61.9901 43.2874 61.4141C42.9994 60.8301 42.8554 60.2061 42.8554 59.5421C42.8554 58.6381 43.0914 57.8141 43.5634 57.0701C44.0354 56.3261 44.6634 55.7341 45.4474 55.2941C46.2394 54.8541 47.1114 54.6341 48.0634 54.6341C49.0234 54.6341 49.8954 54.8541 50.6794 55.2941C51.4634 55.7341 52.0914 56.3261 52.5634 57.0701C53.0354 57.8141 53.2714 58.6381 53.2714 59.5421C53.2714 60.2061 53.1274 60.8301 52.8394 61.4141C52.5594 61.9901 52.1794 62.4901 51.6994 62.9141C52.3074 63.3781 52.7834 63.9501 53.1274 64.6301C53.4794 65.3021 53.6554 66.0221 53.6554 66.7901C53.6554 67.7581 53.4034 68.6421 52.8994 69.4421C52.4034 70.2341 51.7314 70.8701 50.8834 71.3501C50.0354 71.8221 49.0954 72.0581 48.0634 72.0581ZM48.0634 69.1301C48.5274 69.1301 48.9474 69.0261 49.3234 68.8181C49.6994 68.6021 49.9994 68.3181 50.2234 67.9661C50.4474 67.6141 50.5594 67.2221 50.5594 66.7901C50.5594 66.3581 50.4474 65.9661 50.2234 65.6141C49.9994 65.2621 49.6994 64.9821 49.3234 64.7741C48.9474 64.5581 48.5274 64.4501 48.0634 64.4501C47.6074 64.4501 47.1914 64.5581 46.8154 64.7741C46.4394 64.9821 46.1354 65.2621 45.9034 65.6141C45.6794 65.9661 45.5674 66.3581 45.5674 66.7901C45.5674 67.2221 45.6794 67.6141 45.9034 67.9661C46.1354 68.3181 46.4394 68.6021 46.8154 68.8181C47.1914 69.0261 47.6074 69.1301 48.0634 69.1301ZM48.0634 61.5221C48.4554 61.5221 48.8114 61.4341 49.1314 61.2581C49.4514 61.0741 49.7034 60.8341 49.8874 60.5381C50.0794 60.2421 50.1754 59.9101 50.1754 59.5421C50.1754 59.1741 50.0794 58.8421 49.8874 58.5461C49.7034 58.2501 49.4514 58.0141 49.1314 57.8381C48.8114 57.6541 48.4554 57.5621 48.0634 57.5621C47.6794 57.5621 47.3274 57.6541 47.0074 57.8381C46.6874 58.0141 46.4314 58.2501 46.2394 58.5461C46.0474 58.8421 45.9514 59.1741 45.9514 59.5421C45.9514 59.9101 46.0474 60.2421 46.2394 60.5381C46.4314 60.8341 46.6874 61.0741 47.0074 61.2581C47.3274 61.4341 47.6794 61.5221 48.0634 61.5221ZM61.8735 72.0581C60.8975 72.0581 60.0095 71.8341 59.2095 71.3861C58.4095 70.9301 57.7175 70.3021 57.1335 69.5021C56.5575 68.7021 56.1135 67.7781 55.8015 66.7301C55.4895 65.6741 55.3335 64.5461 55.3335 63.3461C55.3335 62.1461 55.4895 61.0221 55.8015 59.9741C56.1135 58.9181 56.5575 57.9901 57.1335 57.1901C57.7175 56.3901 58.4095 55.7661 59.2095 55.3181C60.0095 54.8621 60.8975 54.6341 61.8735 54.6341C62.8495 54.6341 63.7375 54.8621 64.5375 55.3181C65.3375 55.7661 66.0215 56.3901 66.5895 57.1901C67.1655 57.9901 67.6095 58.9181 67.9215 59.9741C68.2415 61.0221 68.4015 62.1461 68.4015 63.3461C68.4015 64.5461 68.2415 65.6741 67.9215 66.7301C67.6095 67.7781 67.1655 68.7021 66.5895 69.5021C66.0215 70.3021 65.3375 70.9301 64.5375 71.3861C63.7375 71.8341 62.8495 72.0581 61.8735 72.0581ZM61.8735 69.1301C62.7295 69.1301 63.4375 68.8581 63.9975 68.3141C64.5575 67.7701 64.9735 67.0581 65.2455 66.1781C65.5175 65.2981 65.6535 64.3541 65.6535 63.3461C65.6535 62.2821 65.5095 61.3141 65.2215 60.4421C64.9335 59.5621 64.5095 58.8621 63.9495 58.3421C63.3895 57.8221 62.6975 57.5621 61.8735 57.5621C61.2255 57.5621 60.6615 57.7221 60.1815 58.0421C59.7095 58.3541 59.3175 58.7821 59.0055 59.3261C58.6935 59.8701 58.4615 60.4901 58.3095 61.1861C58.1575 61.8741 58.0815 62.5941 58.0815 63.3461C58.0815 64.3461 58.2175 65.2901 58.4895 66.1781C58.7695 67.0581 59.1895 67.7701 59.7495 68.3141C60.3175 68.8581 61.0255 69.1301 61.8735 69.1301ZM71.6293 71.7461L81.3253 54.9461H84.7093L75.0133 71.7461H71.6293ZM73.6933 62.2301C73.0373 62.2301 72.4333 62.0741 71.8813 61.7621C71.3373 61.4421 70.9013 61.0101 70.5733 60.4661C70.2453 59.9221 70.0813 59.3141 70.0813 58.6421C70.0813 57.9541 70.2453 57.3381 70.5733 56.7941C70.9093 56.2501 71.3493 55.8221 71.8933 55.5101C72.4453 55.1981 73.0453 55.0421 73.6933 55.0421C74.3493 55.0421 74.9493 55.2021 75.4933 55.5221C76.0373 55.8421 76.4693 56.2741 76.7893 56.8181C77.1173 57.3621 77.2813 57.9701 77.2813 58.6421C77.2813 59.3221 77.1133 59.9341 76.7773 60.4781C76.4493 61.0221 76.0133 61.4501 75.4693 61.7621C74.9253 62.0741 74.3333 62.2301 73.6933 62.2301ZM73.6933 60.2261C74.1253 60.2261 74.4973 60.0741 74.8093 59.7701C75.1213 59.4581 75.2773 59.0821 75.2773 58.6421C75.2773 58.1941 75.1213 57.8181 74.8093 57.5141C74.4973 57.2101 74.1253 57.0581 73.6933 57.0581C73.2533 57.0581 72.8733 57.2101 72.5533 57.5141C72.2413 57.8181 72.0853 58.1941 72.0853 58.6421C72.0853 59.0821 72.2413 59.4581 72.5533 59.7701C72.8733 60.0741 73.2533 60.2261 73.6933 60.2261ZM82.6453 71.6621C81.9813 71.6621 81.3773 71.4981 80.8333 71.1701C80.2893 70.8341 79.8573 70.3941 79.5373 69.8501C79.2173 69.2981 79.0573 68.7061 79.0573 68.0741C79.0573 67.3861 79.2213 66.7701 79.5493 66.2261C79.8853 65.6821 80.3253 65.2541 80.8693 64.9421C81.4213 64.6221 82.0133 64.4621 82.6453 64.4621C83.3333 64.4621 83.9493 64.6301 84.4933 64.9661C85.0373 65.3021 85.4653 65.7461 85.7773 66.2981C86.0973 66.8421 86.2573 67.4341 86.2573 68.0741C86.2573 68.7301 86.0933 69.3301 85.7653 69.8741C85.4453 70.4181 85.0093 70.8541 84.4573 71.1821C83.9133 71.5021 83.3093 71.6621 82.6453 71.6621ZM82.6453 69.6581C83.0933 69.6581 83.4733 69.5021 83.7853 69.1901C84.0973 68.8781 84.2533 68.5061 84.2533 68.0741C84.2533 67.6261 84.0973 67.2461 83.7853 66.9341C83.4733 66.6221 83.0933 66.4661 82.6453 66.4661C82.2133 66.4661 81.8413 66.6221 81.5293 66.9341C81.2173 67.2461 81.0613 67.6261 81.0613 68.0741C81.0613 68.5061 81.2173 68.8781 81.5293 69.1901C81.8413 69.5021 82.2133 69.6581 82.6453 69.6581Z" fill="#D88913"/>
<circle cx="17.4509" cy="98.5358" r="5.21831" fill="white" stroke="#D88913" stroke-width="2.40845"/>
</svg>
