<svg width="120" height="117" viewBox="0 0 120 117" fill="none" xmlns="http://www.w3.org/2000/svg">
<mask id="path-1-outside-1_1518_76985" maskUnits="userSpaceOnUse" x="0" y="0" width="120" height="99" fill="black">
<rect fill="white" width="120" height="99"/>
<path d="M117 60C117 50.8425 114.794 41.8197 110.568 33.6956C106.342 25.5715 100.22 18.5852 92.7221 13.3281C85.2239 8.07104 76.5694 4.69795 67.4913 3.49442C58.4132 2.29088 49.1787 3.29233 40.5697 6.41397C31.9606 9.53562 24.2304 14.6856 18.0335 21.4278C11.8365 28.1701 7.35529 36.3062 4.96909 45.1474C2.5829 53.9886 2.36201 63.2746 4.32513 72.2192C6.28825 81.1638 10.3776 89.5038 16.2469 96.5331L60 60H117Z"/>
</mask>
<path d="M117 60C117 50.8425 114.794 41.8197 110.568 33.6956C106.342 25.5715 100.22 18.5852 92.7221 13.3281C85.2239 8.07104 76.5694 4.69795 67.4913 3.49442C58.4132 2.29088 49.1787 3.29233 40.5697 6.41397C31.9606 9.53562 24.2304 14.6856 18.0335 21.4278C11.8365 28.1701 7.35529 36.3062 4.96909 45.1474C2.5829 53.9886 2.36201 63.2746 4.32513 72.2192C6.28825 81.1638 10.3776 89.5038 16.2469 96.5331L60 60H117Z" stroke="#8DB776" stroke-width="4.8169" stroke-linejoin="round" mask="url(#path-1-outside-1_1518_76985)"/>
<circle cx="60" cy="60" r="57" fill="white"/>
<path d="M45.0154 71.7461L48.2434 66.1661C47.4514 66.2141 46.6954 66.1061 45.9754 65.8421C45.2634 65.5781 44.6274 65.1861 44.0674 64.6661C43.5074 64.1461 43.0634 63.5301 42.7354 62.8181C42.4154 62.1061 42.2554 61.3341 42.2554 60.5021C42.2554 59.6941 42.4074 58.9381 42.7114 58.2341C43.0154 57.5221 43.4354 56.8981 43.9714 56.3621C44.5154 55.8181 45.1394 55.3941 45.8434 55.0901C46.5554 54.7861 47.3194 54.6341 48.1354 54.6341C49.1994 54.6341 50.1714 54.8981 51.0514 55.4261C51.9394 55.9541 52.6474 56.6621 53.1754 57.5501C53.7114 58.4381 53.9794 59.4221 53.9794 60.5021C53.9794 61.0381 53.9114 61.5461 53.7754 62.0261C53.6474 62.4981 53.4434 62.9781 53.1634 63.4661L48.3994 71.7461H45.0154ZM48.1114 63.4421C48.6874 63.4421 49.1954 63.3021 49.6354 63.0221C50.0834 62.7421 50.4314 62.3781 50.6794 61.9301C50.9274 61.4821 51.0514 61.0021 51.0514 60.4901C51.0514 59.9301 50.9154 59.4301 50.6434 58.9901C50.3714 58.5421 50.0114 58.1941 49.5634 57.9461C49.1154 57.6901 48.6394 57.5621 48.1354 57.5621C47.5594 57.5621 47.0474 57.7021 46.5994 57.9821C46.1594 58.2541 45.8114 58.6141 45.5554 59.0621C45.2994 59.5101 45.1714 59.9861 45.1714 60.4901C45.1714 61.0261 45.2994 61.5181 45.5554 61.9661C45.8194 62.4141 46.1714 62.7741 46.6114 63.0461C47.0594 63.3101 47.5594 63.4421 48.1114 63.4421ZM61.9673 72.0581C60.9913 72.0581 60.1033 71.8341 59.3033 71.3861C58.5033 70.9301 57.8113 70.3021 57.2273 69.5021C56.6513 68.7021 56.2073 67.7781 55.8953 66.7301C55.5833 65.6741 55.4273 64.5461 55.4273 63.3461C55.4273 62.1461 55.5833 61.0221 55.8953 59.9741C56.2073 58.9181 56.6513 57.9901 57.2273 57.1901C57.8113 56.3901 58.5033 55.7661 59.3033 55.3181C60.1033 54.8621 60.9913 54.6341 61.9673 54.6341C62.9433 54.6341 63.8313 54.8621 64.6313 55.3181C65.4313 55.7661 66.1153 56.3901 66.6833 57.1901C67.2593 57.9901 67.7033 58.9181 68.0153 59.9741C68.3353 61.0221 68.4953 62.1461 68.4953 63.3461C68.4953 64.5461 68.3353 65.6741 68.0153 66.7301C67.7033 67.7781 67.2593 68.7021 66.6833 69.5021C66.1153 70.3021 65.4313 70.9301 64.6313 71.3861C63.8313 71.8341 62.9433 72.0581 61.9673 72.0581ZM61.9673 69.1301C62.8233 69.1301 63.5313 68.8581 64.0913 68.3141C64.6513 67.7701 65.0673 67.0581 65.3393 66.1781C65.6113 65.2981 65.7473 64.3541 65.7473 63.3461C65.7473 62.2821 65.6033 61.3141 65.3153 60.4421C65.0273 59.5621 64.6033 58.8621 64.0433 58.3421C63.4833 57.8221 62.7913 57.5621 61.9673 57.5621C61.3193 57.5621 60.7553 57.7221 60.2753 58.0421C59.8033 58.3541 59.4113 58.7821 59.0993 59.3261C58.7873 59.8701 58.5553 60.4901 58.4033 61.1861C58.2513 61.8741 58.1753 62.5941 58.1753 63.3461C58.1753 64.3461 58.3113 65.2901 58.5833 66.1781C58.8633 67.0581 59.2833 67.7701 59.8433 68.3141C60.4113 68.8581 61.1193 69.1301 61.9673 69.1301ZM71.7231 71.7461L81.4191 54.9461H84.8031L75.1071 71.7461H71.7231ZM73.7871 62.2301C73.1311 62.2301 72.5271 62.0741 71.9751 61.7621C71.4311 61.4421 70.9951 61.0101 70.6671 60.4661C70.3391 59.9221 70.1751 59.3141 70.1751 58.6421C70.1751 57.9541 70.3391 57.3381 70.6671 56.7941C71.0031 56.2501 71.4431 55.8221 71.9871 55.5101C72.5391 55.1981 73.1391 55.0421 73.7871 55.0421C74.4431 55.0421 75.0431 55.2021 75.5871 55.5221C76.1311 55.8421 76.5631 56.2741 76.8831 56.8181C77.2111 57.3621 77.3751 57.9701 77.3751 58.6421C77.3751 59.3221 77.2071 59.9341 76.8711 60.4781C76.5431 61.0221 76.1071 61.4501 75.5631 61.7621C75.0191 62.0741 74.4271 62.2301 73.7871 62.2301ZM73.7871 60.2261C74.2191 60.2261 74.5911 60.0741 74.9031 59.7701C75.2151 59.4581 75.3711 59.0821 75.3711 58.6421C75.3711 58.1941 75.2151 57.8181 74.9031 57.5141C74.5911 57.2101 74.2191 57.0581 73.7871 57.0581C73.3471 57.0581 72.9671 57.2101 72.6471 57.5141C72.3351 57.8181 72.1791 58.1941 72.1791 58.6421C72.1791 59.0821 72.3351 59.4581 72.6471 59.7701C72.9671 60.0741 73.3471 60.2261 73.7871 60.2261ZM82.7391 71.6621C82.0751 71.6621 81.4711 71.4981 80.9271 71.1701C80.3831 70.8341 79.9511 70.3941 79.6311 69.8501C79.3111 69.2981 79.1511 68.7061 79.1511 68.0741C79.1511 67.3861 79.3151 66.7701 79.6431 66.2261C79.9791 65.6821 80.4191 65.2541 80.9631 64.9421C81.5151 64.6221 82.1071 64.4621 82.7391 64.4621C83.4271 64.4621 84.0431 64.6301 84.5871 64.9661C85.1311 65.3021 85.5591 65.7461 85.8711 66.2981C86.1911 66.8421 86.3511 67.4341 86.3511 68.0741C86.3511 68.7301 86.1871 69.3301 85.8591 69.8741C85.5391 70.4181 85.1031 70.8541 84.5511 71.1821C84.0071 71.5021 83.4031 71.6621 82.7391 71.6621ZM82.7391 69.6581C83.1871 69.6581 83.5671 69.5021 83.8791 69.1901C84.1911 68.8781 84.3471 68.5061 84.3471 68.0741C84.3471 67.6261 84.1911 67.2461 83.8791 66.9341C83.5671 66.6221 83.1871 66.4661 82.7391 66.4661C82.3071 66.4661 81.9351 66.6221 81.6231 66.9341C81.3111 67.2461 81.1551 67.6261 81.1551 68.0741C81.1551 68.5061 81.3111 68.8781 81.6231 69.1901C81.9351 69.5021 82.3071 69.6581 82.7391 69.6581Z" fill="#8DB776"/>
<circle cx="17.4509" cy="98.5358" r="5.21831" fill="white" stroke="#8DB776" stroke-width="2.40845"/>
</svg>
