<svg width="358" height="212" viewBox="0 0 358 212" fill="none" xmlns="http://www.w3.org/2000/svg">
<path opacity="0.2" d="M29.886 66.5475L27 68.4896V212H356V48.301L353.114 51.8493C350.228 55.3976 344.456 62.4942 338.684 61.9952C332.912 61.4963 327.14 53.4017 321.368 42.685C315.596 31.9682 309.825 18.6292 304.053 11.0807C298.281 3.53207 292.509 1.77389 286.737 1.17259C280.965 0.571295 275.193 1.12688 269.421 9.71773C263.649 18.3086 257.877 34.9347 252.105 41.1124C246.333 47.29 240.561 43.0191 234.789 47.9097C229.018 52.8002 223.246 66.8523 217.474 75.5706C211.702 84.2889 205.93 87.6735 200.158 90.8481C194.386 94.0227 188.614 96.9874 182.842 80.1032C177.07 63.2189 171.298 26.4857 165.526 27.6114C159.754 28.737 153.982 67.7214 148.211 77.5141C142.439 87.3067 136.667 67.9075 130.895 68.7257C125.123 69.5439 119.351 90.5795 113.579 100.6C107.807 110.621 102.035 109.628 96.2632 91.3157C90.4912 73.0037 84.7193 37.3735 78.9474 31.0767C73.1754 24.78 67.4035 47.8167 61.6316 56.999C55.8596 66.1814 50.0877 61.5094 44.3158 61.1154C38.5439 60.7215 32.7719 64.6055 29.886 66.5475Z" fill="url(#paint0_linear_0_1)"/>
<path d="M27 68.5295L29.886 66.5863C32.7719 64.6432 38.5439 60.7568 44.3158 61.151C50.0877 61.5452 55.8596 66.22 61.6316 57.0322C67.4035 47.8444 73.1754 24.794 78.9474 31.0945C84.7193 37.395 90.4912 73.0463 96.2632 91.3691C102.035 109.692 107.807 110.686 113.579 100.659C119.351 90.6325 125.123 69.5845 130.895 68.7658C136.667 67.9471 142.439 87.3578 148.211 77.5593C153.982 67.7609 159.754 28.7534 165.526 27.6271C171.298 26.5008 177.07 63.2557 182.842 80.15C188.614 97.0442 194.386 94.0778 200.158 90.9013C205.93 87.7248 211.702 84.3382 217.474 75.6147C223.246 66.8913 229.018 52.8309 234.789 47.9374C240.561 43.044 246.333 47.3174 252.105 41.1361C257.877 34.9548 263.649 18.3188 269.421 9.72289C275.193 1.12695 280.965 0.571042 286.737 1.1727C292.509 1.77435 298.281 3.53357 304.053 11.0866C309.825 18.6397 315.596 31.9865 321.368 42.7097C327.14 53.4328 332.912 61.5321 338.684 62.0313C344.456 62.5306 350.228 55.4298 353.114 51.8794L356 48.329" stroke="#5E44F8"/>
<path d="M3.70813 45V43.305H0.728125V42.08L3.42313 38H4.92813V42.085H5.51813V43.305H4.92813V45H3.70813ZM2.14313 42.08L3.70813 42.085L3.70313 39.665L2.14313 42.08ZM8.84141 45.13C8.43474 45.13 8.06474 45.0367 7.73141 44.85C7.39807 44.66 7.10974 44.3983 6.86641 44.065C6.62641 43.7317 6.44141 43.3467 6.31141 42.91C6.18141 42.47 6.11641 42 6.11641 41.5C6.11641 41 6.18141 40.5317 6.31141 40.095C6.44141 39.655 6.62641 39.2683 6.86641 38.935C7.10974 38.6017 7.39807 38.3417 7.73141 38.155C8.06474 37.965 8.43474 37.87 8.84141 37.87C9.24807 37.87 9.61807 37.965 9.95141 38.155C10.2847 38.3417 10.5697 38.6017 10.8064 38.935C11.0464 39.2683 11.2314 39.655 11.3614 40.095C11.4947 40.5317 11.5614 41 11.5614 41.5C11.5614 42 11.4947 42.47 11.3614 42.91C11.2314 43.3467 11.0464 43.7317 10.8064 44.065C10.5697 44.3983 10.2847 44.66 9.95141 44.85C9.61807 45.0367 9.24807 45.13 8.84141 45.13ZM8.84141 43.91C9.19807 43.91 9.49307 43.7967 9.72641 43.57C9.95974 43.3433 10.1331 43.0467 10.2464 42.68C10.3597 42.3133 10.4164 41.92 10.4164 41.5C10.4164 41.0567 10.3564 40.6533 10.2364 40.29C10.1164 39.9233 9.93974 39.6317 9.70641 39.415C9.47307 39.1983 9.18474 39.09 8.84141 39.09C8.57141 39.09 8.33641 39.1567 8.13641 39.29C7.93974 39.42 7.77641 39.5983 7.64641 39.825C7.51641 40.0517 7.41974 40.31 7.35641 40.6C7.29307 40.8867 7.26141 41.1867 7.26141 41.5C7.26141 41.9167 7.31807 42.31 7.43141 42.68C7.54807 43.0467 7.72307 43.3433 7.95641 43.57C8.19307 43.7967 8.48807 43.91 8.84141 43.91ZM14.652 45.13C14.2453 45.13 13.8753 45.0367 13.542 44.85C13.2086 44.66 12.9203 44.3983 12.677 44.065C12.437 43.7317 12.252 43.3467 12.122 42.91C11.992 42.47 11.927 42 11.927 41.5C11.927 41 11.992 40.5317 12.122 40.095C12.252 39.655 12.437 39.2683 12.677 38.935C12.9203 38.6017 13.2086 38.3417 13.542 38.155C13.8753 37.965 14.2453 37.87 14.652 37.87C15.0586 37.87 15.4286 37.965 15.762 38.155C16.0953 38.3417 16.3803 38.6017 16.617 38.935C16.857 39.2683 17.042 39.655 17.172 40.095C17.3053 40.5317 17.372 41 17.372 41.5C17.372 42 17.3053 42.47 17.172 42.91C17.042 43.3467 16.857 43.7317 16.617 44.065C16.3803 44.3983 16.0953 44.66 15.762 44.85C15.4286 45.0367 15.0586 45.13 14.652 45.13ZM14.652 43.91C15.0086 43.91 15.3036 43.7967 15.537 43.57C15.7703 43.3433 15.9436 43.0467 16.057 42.68C16.1703 42.3133 16.227 41.92 16.227 41.5C16.227 41.0567 16.167 40.6533 16.047 40.29C15.927 39.9233 15.7503 39.6317 15.517 39.415C15.2836 39.1983 14.9953 39.09 14.652 39.09C14.382 39.09 14.147 39.1567 13.947 39.29C13.7503 39.42 13.587 39.5983 13.457 39.825C13.327 40.0517 13.2303 40.31 13.167 40.6C13.1036 40.8867 13.072 41.1867 13.072 41.5C13.072 41.9167 13.1286 42.31 13.242 42.68C13.3586 43.0467 13.5336 43.3433 13.767 43.57C14.0036 43.7967 14.2986 43.91 14.652 43.91Z" fill="#CACACA"/>
<path d="M3.06867 97.13C2.64534 97.13 2.26367 97.03 1.92367 96.83C1.58367 96.63 1.31367 96.3617 1.11367 96.025C0.913672 95.685 0.813672 95.3083 0.813672 94.895H2.03367C2.03367 95.0817 2.07701 95.2517 2.16367 95.405C2.25367 95.5583 2.37701 95.6817 2.53367 95.775C2.69034 95.865 2.86867 95.91 3.06867 95.91C3.25201 95.91 3.42201 95.865 3.57867 95.775C3.73867 95.6817 3.86701 95.5583 3.96367 95.405C4.06034 95.2517 4.10867 95.0817 4.10867 94.895C4.10867 94.6517 4.04367 94.45 3.91367 94.29C3.78367 94.1267 3.60201 94.005 3.36867 93.925C3.13867 93.845 2.87034 93.805 2.56367 93.805V92.865C2.97701 92.865 3.30367 92.7867 3.54367 92.63C3.78701 92.4733 3.90867 92.2433 3.90867 91.94C3.90867 91.7833 3.86867 91.64 3.78867 91.51C3.70867 91.38 3.60201 91.2767 3.46867 91.2C3.33867 91.12 3.19534 91.08 3.03867 91.08C2.87867 91.08 2.72367 91.12 2.57367 91.2C2.42367 91.2767 2.30034 91.38 2.20367 91.51C2.11034 91.64 2.06367 91.7833 2.06367 91.94H0.843672C0.843672 91.6533 0.902005 91.385 1.01867 91.135C1.13534 90.8817 1.29534 90.66 1.49867 90.47C1.70534 90.28 1.93867 90.1317 2.19867 90.025C2.46201 89.915 2.73701 89.86 3.02367 89.86C3.40034 89.86 3.74867 89.9533 4.06867 90.14C4.38867 90.3267 4.64534 90.5767 4.83867 90.89C5.03201 91.2033 5.12867 91.5533 5.12867 91.94C5.12867 92.21 5.06534 92.475 4.93867 92.735C4.81201 92.995 4.63201 93.1783 4.39867 93.285C4.60201 93.3583 4.77201 93.4817 4.90867 93.655C5.04534 93.825 5.14867 94.02 5.21867 94.24C5.29201 94.4567 5.32867 94.675 5.32867 94.895C5.32867 95.305 5.22534 95.68 5.01867 96.02C4.81201 96.3567 4.53701 96.6267 4.19367 96.83C3.85367 97.03 3.47867 97.13 3.06867 97.13ZM8.65586 97.13C8.24919 97.13 7.87919 97.0367 7.54586 96.85C7.21253 96.66 6.92419 96.3983 6.68086 96.065C6.44086 95.7317 6.25586 95.3467 6.12586 94.91C5.99586 94.47 5.93086 94 5.93086 93.5C5.93086 93 5.99586 92.5317 6.12586 92.095C6.25586 91.655 6.44086 91.2683 6.68086 90.935C6.92419 90.6017 7.21253 90.3417 7.54586 90.155C7.87919 89.965 8.24919 89.87 8.65586 89.87C9.06253 89.87 9.43253 89.965 9.76586 90.155C10.0992 90.3417 10.3842 90.6017 10.6209 90.935C10.8609 91.2683 11.0459 91.655 11.1759 92.095C11.3092 92.5317 11.3759 93 11.3759 93.5C11.3759 94 11.3092 94.47 11.1759 94.91C11.0459 95.3467 10.8609 95.7317 10.6209 96.065C10.3842 96.3983 10.0992 96.66 9.76586 96.85C9.43253 97.0367 9.06253 97.13 8.65586 97.13ZM8.65586 95.91C9.01253 95.91 9.30753 95.7967 9.54086 95.57C9.77419 95.3433 9.94753 95.0467 10.0609 94.68C10.1742 94.3133 10.2309 93.92 10.2309 93.5C10.2309 93.0567 10.1709 92.6533 10.0509 92.29C9.93086 91.9233 9.75419 91.6317 9.52086 91.415C9.28753 91.1983 8.99919 91.09 8.65586 91.09C8.38586 91.09 8.15086 91.1567 7.95086 91.29C7.75419 91.42 7.59086 91.5983 7.46086 91.825C7.33086 92.0517 7.23419 92.31 7.17086 92.6C7.10753 92.8867 7.07586 93.1867 7.07586 93.5C7.07586 93.9167 7.13253 94.31 7.24586 94.68C7.36253 95.0467 7.53753 95.3433 7.77086 95.57C8.00753 95.7967 8.30253 95.91 8.65586 95.91ZM14.4664 97.13C14.0597 97.13 13.6897 97.0367 13.3564 96.85C13.0231 96.66 12.7347 96.3983 12.4914 96.065C12.2514 95.7317 12.0664 95.3467 11.9364 94.91C11.8064 94.47 11.7414 94 11.7414 93.5C11.7414 93 11.8064 92.5317 11.9364 92.095C12.0664 91.655 12.2514 91.2683 12.4914 90.935C12.7347 90.6017 13.0231 90.3417 13.3564 90.155C13.6897 89.965 14.0597 89.87 14.4664 89.87C14.8731 89.87 15.2431 89.965 15.5764 90.155C15.9097 90.3417 16.1947 90.6017 16.4314 90.935C16.6714 91.2683 16.8564 91.655 16.9864 92.095C17.1197 92.5317 17.1864 93 17.1864 93.5C17.1864 94 17.1197 94.47 16.9864 94.91C16.8564 95.3467 16.6714 95.7317 16.4314 96.065C16.1947 96.3983 15.9097 96.66 15.5764 96.85C15.2431 97.0367 14.8731 97.13 14.4664 97.13ZM14.4664 95.91C14.8231 95.91 15.1181 95.7967 15.3514 95.57C15.5847 95.3433 15.7581 95.0467 15.8714 94.68C15.9847 94.3133 16.0414 93.92 16.0414 93.5C16.0414 93.0567 15.9814 92.6533 15.8614 92.29C15.7414 91.9233 15.5647 91.6317 15.3314 91.415C15.0981 91.1983 14.8097 91.09 14.4664 91.09C14.1964 91.09 13.9614 91.1567 13.7614 91.29C13.5647 91.42 13.4014 91.5983 13.2714 91.825C13.1414 92.0517 13.0447 92.31 12.9814 92.6C12.9181 92.8867 12.8864 93.1867 12.8864 93.5C12.8864 93.9167 12.9431 94.31 13.0564 94.68C13.1731 95.0467 13.3481 95.3433 13.5814 95.57C13.8181 95.7967 14.1131 95.91 14.4664 95.91Z" fill="#CACACA"/>
<path d="M0.4 149V147.91C0.616667 147.747 0.873333 147.545 1.17 147.305C1.46667 147.062 1.77167 146.8 2.085 146.52C2.39833 146.237 2.68833 145.953 2.955 145.67C3.22167 145.387 3.43833 145.117 3.605 144.86C3.775 144.603 3.86 144.383 3.86 144.2C3.86 143.997 3.81 143.812 3.71 143.645C3.61 143.475 3.47667 143.34 3.31 143.24C3.14667 143.14 2.96333 143.09 2.76 143.09C2.55667 143.09 2.37167 143.14 2.205 143.24C2.03833 143.34 1.905 143.475 1.805 143.645C1.705 143.812 1.655 143.997 1.655 144.2H0.435C0.435 143.76 0.541667 143.365 0.755 143.015C0.968333 142.662 1.25 142.383 1.6 142.18C1.95333 141.973 2.34 141.87 2.76 141.87C3.18667 141.87 3.575 141.975 3.925 142.185C4.275 142.392 4.555 142.672 4.765 143.025C4.975 143.378 5.08 143.77 5.08 144.2C5.08 144.427 5.03833 144.655 4.955 144.885C4.87167 145.115 4.755 145.347 4.605 145.58C4.455 145.813 4.27833 146.05 4.075 146.29C3.87167 146.527 3.64667 146.77 3.4 147.02C3.15667 147.267 2.9 147.52 2.63 147.78H5.115V149H0.4ZM8.48398 149.13C8.07732 149.13 7.70732 149.037 7.37398 148.85C7.04065 148.66 6.75232 148.398 6.50898 148.065C6.26898 147.732 6.08398 147.347 5.95398 146.91C5.82398 146.47 5.75898 146 5.75898 145.5C5.75898 145 5.82398 144.532 5.95398 144.095C6.08398 143.655 6.26898 143.268 6.50898 142.935C6.75232 142.602 7.04065 142.342 7.37398 142.155C7.70732 141.965 8.07732 141.87 8.48398 141.87C8.89065 141.87 9.26065 141.965 9.59398 142.155C9.92732 142.342 10.2123 142.602 10.449 142.935C10.689 143.268 10.874 143.655 11.004 144.095C11.1373 144.532 11.204 145 11.204 145.5C11.204 146 11.1373 146.47 11.004 146.91C10.874 147.347 10.689 147.732 10.449 148.065C10.2123 148.398 9.92732 148.66 9.59398 148.85C9.26065 149.037 8.89065 149.13 8.48398 149.13ZM8.48398 147.91C8.84065 147.91 9.13565 147.797 9.36898 147.57C9.60232 147.343 9.77565 147.047 9.88898 146.68C10.0023 146.313 10.059 145.92 10.059 145.5C10.059 145.057 9.99898 144.653 9.87898 144.29C9.75898 143.923 9.58232 143.632 9.34898 143.415C9.11565 143.198 8.82732 143.09 8.48398 143.09C8.21398 143.09 7.97898 143.157 7.77898 143.29C7.58232 143.42 7.41898 143.598 7.28898 143.825C7.15898 144.052 7.06232 144.31 6.99898 144.6C6.93565 144.887 6.90398 145.187 6.90398 145.5C6.90398 145.917 6.96065 146.31 7.07398 146.68C7.19065 147.047 7.36565 147.343 7.59898 147.57C7.83565 147.797 8.13065 147.91 8.48398 147.91ZM14.2945 149.13C13.8879 149.13 13.5179 149.037 13.1845 148.85C12.8512 148.66 12.5629 148.398 12.3195 148.065C12.0795 147.732 11.8945 147.347 11.7645 146.91C11.6345 146.47 11.5695 146 11.5695 145.5C11.5695 145 11.6345 144.532 11.7645 144.095C11.8945 143.655 12.0795 143.268 12.3195 142.935C12.5629 142.602 12.8512 142.342 13.1845 142.155C13.5179 141.965 13.8879 141.87 14.2945 141.87C14.7012 141.87 15.0712 141.965 15.4045 142.155C15.7379 142.342 16.0229 142.602 16.2595 142.935C16.4995 143.268 16.6845 143.655 16.8145 144.095C16.9479 144.532 17.0145 145 17.0145 145.5C17.0145 146 16.9479 146.47 16.8145 146.91C16.6845 147.347 16.4995 147.732 16.2595 148.065C16.0229 148.398 15.7379 148.66 15.4045 148.85C15.0712 149.037 14.7012 149.13 14.2945 149.13ZM14.2945 147.91C14.6512 147.91 14.9462 147.797 15.1795 147.57C15.4129 147.343 15.5862 147.047 15.6995 146.68C15.8129 146.313 15.8695 145.92 15.8695 145.5C15.8695 145.057 15.8095 144.653 15.6895 144.29C15.5695 143.923 15.3929 143.632 15.1595 143.415C14.9262 143.198 14.6379 143.09 14.2945 143.09C14.0245 143.09 13.7895 143.157 13.5895 143.29C13.3929 143.42 13.2295 143.598 13.0995 143.825C12.9695 144.052 12.8729 144.31 12.8095 144.6C12.7462 144.887 12.7145 145.187 12.7145 145.5C12.7145 145.917 12.7712 146.31 12.8845 146.68C13.0012 147.047 13.1762 147.343 13.4095 147.57C13.6462 147.797 13.9412 147.91 14.2945 147.91Z" fill="#CACACA"/>
<path d="M2.28 201V195.22H1.4L1.73 194H3.5V201H2.28ZM7.32578 201.13C6.91911 201.13 6.54911 201.037 6.21578 200.85C5.88245 200.66 5.59411 200.398 5.35078 200.065C5.11078 199.732 4.92578 199.347 4.79578 198.91C4.66578 198.47 4.60078 198 4.60078 197.5C4.60078 197 4.66578 196.532 4.79578 196.095C4.92578 195.655 5.11078 195.268 5.35078 194.935C5.59411 194.602 5.88245 194.342 6.21578 194.155C6.54911 193.965 6.91911 193.87 7.32578 193.87C7.73245 193.87 8.10245 193.965 8.43578 194.155C8.76911 194.342 9.05411 194.602 9.29078 194.935C9.53078 195.268 9.71578 195.655 9.84578 196.095C9.97911 196.532 10.0458 197 10.0458 197.5C10.0458 198 9.97911 198.47 9.84578 198.91C9.71578 199.347 9.53078 199.732 9.29078 200.065C9.05411 200.398 8.76911 200.66 8.43578 200.85C8.10245 201.037 7.73245 201.13 7.32578 201.13ZM7.32578 199.91C7.68245 199.91 7.97745 199.797 8.21078 199.57C8.44411 199.343 8.61745 199.047 8.73078 198.68C8.84411 198.313 8.90078 197.92 8.90078 197.5C8.90078 197.057 8.84078 196.653 8.72078 196.29C8.60078 195.923 8.42411 195.632 8.19078 195.415C7.95745 195.198 7.66911 195.09 7.32578 195.09C7.05578 195.09 6.82078 195.157 6.62078 195.29C6.42411 195.42 6.26078 195.598 6.13078 195.825C6.00078 196.052 5.90411 196.31 5.84078 196.6C5.77745 196.887 5.74578 197.187 5.74578 197.5C5.74578 197.917 5.80245 198.31 5.91578 198.68C6.03245 199.047 6.20745 199.343 6.44078 199.57C6.67745 199.797 6.97245 199.91 7.32578 199.91ZM13.1363 201.13C12.7297 201.13 12.3597 201.037 12.0263 200.85C11.693 200.66 11.4047 200.398 11.1613 200.065C10.9213 199.732 10.7363 199.347 10.6063 198.91C10.4763 198.47 10.4113 198 10.4113 197.5C10.4113 197 10.4763 196.532 10.6063 196.095C10.7363 195.655 10.9213 195.268 11.1613 194.935C11.4047 194.602 11.693 194.342 12.0263 194.155C12.3597 193.965 12.7297 193.87 13.1363 193.87C13.543 193.87 13.913 193.965 14.2463 194.155C14.5797 194.342 14.8647 194.602 15.1013 194.935C15.3413 195.268 15.5263 195.655 15.6563 196.095C15.7897 196.532 15.8563 197 15.8563 197.5C15.8563 198 15.7897 198.47 15.6563 198.91C15.5263 199.347 15.3413 199.732 15.1013 200.065C14.8647 200.398 14.5797 200.66 14.2463 200.85C13.913 201.037 13.543 201.13 13.1363 201.13ZM13.1363 199.91C13.493 199.91 13.788 199.797 14.0213 199.57C14.2547 199.343 14.428 199.047 14.5413 198.68C14.6547 198.313 14.7113 197.92 14.7113 197.5C14.7113 197.057 14.6513 196.653 14.5313 196.29C14.4113 195.923 14.2347 195.632 14.0013 195.415C13.768 195.198 13.4797 195.09 13.1363 195.09C12.8663 195.09 12.6313 195.157 12.4313 195.29C12.2347 195.42 12.0713 195.598 11.9413 195.825C11.8113 196.052 11.7147 196.31 11.6513 196.6C11.588 196.887 11.5563 197.187 11.5563 197.5C11.5563 197.917 11.613 198.31 11.7263 198.68C11.843 199.047 12.018 199.343 12.2513 199.57C12.488 199.797 12.783 199.91 13.1363 199.91Z" fill="#CACACA"/>
<path d="M30.025 201.13C29.6183 201.13 29.2483 201.037 28.915 200.85C28.5817 200.66 28.2933 200.398 28.05 200.065C27.81 199.732 27.625 199.347 27.495 198.91C27.365 198.47 27.3 198 27.3 197.5C27.3 197 27.365 196.532 27.495 196.095C27.625 195.655 27.81 195.268 28.05 194.935C28.2933 194.602 28.5817 194.342 28.915 194.155C29.2483 193.965 29.6183 193.87 30.025 193.87C30.4317 193.87 30.8017 193.965 31.135 194.155C31.4683 194.342 31.7533 194.602 31.99 194.935C32.23 195.268 32.415 195.655 32.545 196.095C32.6783 196.532 32.745 197 32.745 197.5C32.745 198 32.6783 198.47 32.545 198.91C32.415 199.347 32.23 199.732 31.99 200.065C31.7533 200.398 31.4683 200.66 31.135 200.85C30.8017 201.037 30.4317 201.13 30.025 201.13ZM30.025 199.91C30.3817 199.91 30.6767 199.797 30.91 199.57C31.1433 199.343 31.3167 199.047 31.43 198.68C31.5433 198.313 31.6 197.92 31.6 197.5C31.6 197.057 31.54 196.653 31.42 196.29C31.3 195.923 31.1233 195.632 30.89 195.415C30.6567 195.198 30.3683 195.09 30.025 195.09C29.755 195.09 29.52 195.157 29.32 195.29C29.1233 195.42 28.96 195.598 28.83 195.825C28.7 196.052 28.6033 196.31 28.54 196.6C28.4767 196.887 28.445 197.187 28.445 197.5C28.445 197.917 28.5017 198.31 28.615 198.68C28.7317 199.047 28.9067 199.343 29.14 199.57C29.3767 199.797 29.6717 199.91 30.025 199.91Z" fill="#CACACA"/>
<path d="M75.28 201V195.22H74.4L74.73 194H76.5V201H75.28Z" fill="#CACACA"/>
<path d="M118.4 201V199.91C118.617 199.747 118.873 199.545 119.17 199.305C119.467 199.062 119.772 198.8 120.085 198.52C120.398 198.237 120.688 197.953 120.955 197.67C121.222 197.387 121.438 197.117 121.605 196.86C121.775 196.603 121.86 196.383 121.86 196.2C121.86 195.997 121.81 195.812 121.71 195.645C121.61 195.475 121.477 195.34 121.31 195.24C121.147 195.14 120.963 195.09 120.76 195.09C120.557 195.09 120.372 195.14 120.205 195.24C120.038 195.34 119.905 195.475 119.805 195.645C119.705 195.812 119.655 195.997 119.655 196.2H118.435C118.435 195.76 118.542 195.365 118.755 195.015C118.968 194.662 119.25 194.383 119.6 194.18C119.953 193.973 120.34 193.87 120.76 193.87C121.187 193.87 121.575 193.975 121.925 194.185C122.275 194.392 122.555 194.672 122.765 195.025C122.975 195.378 123.08 195.77 123.08 196.2C123.08 196.427 123.038 196.655 122.955 196.885C122.872 197.115 122.755 197.347 122.605 197.58C122.455 197.813 122.278 198.05 122.075 198.29C121.872 198.527 121.647 198.77 121.4 199.02C121.157 199.267 120.9 199.52 120.63 199.78H123.115V201H118.4Z" fill="#CACACA"/>
<path d="M166.555 201.13C166.132 201.13 165.75 201.03 165.41 200.83C165.07 200.63 164.8 200.362 164.6 200.025C164.4 199.685 164.3 199.308 164.3 198.895H165.52C165.52 199.082 165.563 199.252 165.65 199.405C165.74 199.558 165.863 199.682 166.02 199.775C166.177 199.865 166.355 199.91 166.555 199.91C166.738 199.91 166.908 199.865 167.065 199.775C167.225 199.682 167.353 199.558 167.45 199.405C167.547 199.252 167.595 199.082 167.595 198.895C167.595 198.652 167.53 198.45 167.4 198.29C167.27 198.127 167.088 198.005 166.855 197.925C166.625 197.845 166.357 197.805 166.05 197.805V196.865C166.463 196.865 166.79 196.787 167.03 196.63C167.273 196.473 167.395 196.243 167.395 195.94C167.395 195.783 167.355 195.64 167.275 195.51C167.195 195.38 167.088 195.277 166.955 195.2C166.825 195.12 166.682 195.08 166.525 195.08C166.365 195.08 166.21 195.12 166.06 195.2C165.91 195.277 165.787 195.38 165.69 195.51C165.597 195.64 165.55 195.783 165.55 195.94H164.33C164.33 195.653 164.388 195.385 164.505 195.135C164.622 194.882 164.782 194.66 164.985 194.47C165.192 194.28 165.425 194.132 165.685 194.025C165.948 193.915 166.223 193.86 166.51 193.86C166.887 193.86 167.235 193.953 167.555 194.14C167.875 194.327 168.132 194.577 168.325 194.89C168.518 195.203 168.615 195.553 168.615 195.94C168.615 196.21 168.552 196.475 168.425 196.735C168.298 196.995 168.118 197.178 167.885 197.285C168.088 197.358 168.258 197.482 168.395 197.655C168.532 197.825 168.635 198.02 168.705 198.24C168.778 198.457 168.815 198.675 168.815 198.895C168.815 199.305 168.712 199.68 168.505 200.02C168.298 200.357 168.023 200.627 167.68 200.83C167.34 201.03 166.965 201.13 166.555 201.13Z" fill="#CACACA"/>
<path d="M213.38 201V199.305H210.4V198.08L213.095 194H214.6V198.085H215.19V199.305H214.6V201H213.38ZM211.815 198.08L213.38 198.085L213.375 195.665L211.815 198.08Z" fill="#CACACA"/>
<path d="M258.75 201.13C258.3 201.13 257.893 201.022 257.53 200.805C257.167 200.585 256.878 200.293 256.665 199.93C256.455 199.567 256.35 199.168 256.35 198.735H257.57C257.57 198.952 257.623 199.15 257.73 199.33C257.837 199.507 257.978 199.648 258.155 199.755C258.335 199.858 258.533 199.91 258.75 199.91C258.967 199.91 259.163 199.858 259.34 199.755C259.517 199.648 259.658 199.507 259.765 199.33C259.872 199.15 259.925 198.952 259.925 198.735C259.925 198.518 259.878 198.32 259.785 198.14C259.695 197.957 259.547 197.812 259.34 197.705C259.137 197.595 258.867 197.54 258.53 197.54H256.73L257.47 194H260.91V195.22H258.46L258.235 196.32L258.73 196.325C259.203 196.342 259.622 196.457 259.985 196.67C260.348 196.883 260.632 197.17 260.835 197.53C261.042 197.887 261.145 198.288 261.145 198.735C261.145 199.062 261.083 199.37 260.96 199.66C260.837 199.95 260.665 200.205 260.445 200.425C260.225 200.645 259.97 200.818 259.68 200.945C259.393 201.068 259.083 201.13 258.75 201.13ZM263.022 201V195.22H262.142L262.472 194H264.242V201H263.022Z" fill="#CACACA"/>
<path d="M308.71 201.13C308.263 201.13 307.853 201.018 307.48 200.795C307.107 200.572 306.808 200.273 306.585 199.9C306.362 199.527 306.25 199.113 306.25 198.66C306.25 198.427 306.277 198.21 306.33 198.01C306.387 197.81 306.473 197.608 306.59 197.405L308.55 194H309.965L308.65 196.275C308.92 196.255 309.18 196.278 309.43 196.345C309.68 196.412 309.912 196.517 310.125 196.66C310.338 196.803 310.525 196.977 310.685 197.18C310.845 197.383 310.968 197.61 311.055 197.86C311.145 198.11 311.19 198.377 311.19 198.66C311.19 199 311.125 199.318 310.995 199.615C310.868 199.912 310.692 200.175 310.465 200.405C310.238 200.632 309.975 200.81 309.675 200.94C309.375 201.067 309.053 201.13 308.71 201.13ZM308.71 199.91C308.953 199.91 309.17 199.852 309.36 199.735C309.55 199.615 309.698 199.46 309.805 199.27C309.915 199.08 309.97 198.878 309.97 198.665C309.97 198.435 309.915 198.225 309.805 198.035C309.695 197.845 309.545 197.693 309.355 197.58C309.168 197.467 308.957 197.41 308.72 197.41C308.477 197.41 308.26 197.47 308.07 197.59C307.883 197.707 307.737 197.86 307.63 198.05C307.523 198.24 307.47 198.445 307.47 198.665C307.47 198.902 307.528 199.113 307.645 199.3C307.762 199.487 307.913 199.635 308.1 199.745C308.29 199.855 308.493 199.91 308.71 199.91Z" fill="#CACACA"/>
<path d="M352.55 201L355.885 195.22H352.2V194H357.3V195.22L353.955 201H352.55Z" fill="#CACACA"/>
<defs>
<linearGradient id="paint0_linear_0_1" x1="191.5" y1="1" x2="191.5" y2="212" gradientUnits="userSpaceOnUse">
<stop stop-color="#5E44F8"/>
<stop offset="1" stop-color="white" stop-opacity="0"/>
</linearGradient>
</defs>
</svg>
