<svg width="25" height="25" viewBox="0 0 25 25" fill="none" xmlns="http://www.w3.org/2000/svg">
<path d="M19.3623 9.01484L15.1123 4.81484L16.5123 3.41484C16.8956 3.03151 17.3666 2.83984 17.9253 2.83984C18.4833 2.83984 18.9539 3.03151 19.3373 3.41484L20.7373 4.81484C21.1206 5.19818 21.3206 5.66084 21.3373 6.20284C21.3539 6.74418 21.1706 7.20651 20.7873 7.58984L19.3623 9.01484ZM4.06226 21.0898C3.77892 21.0898 3.54159 20.9938 3.35026 20.8018C3.15826 20.6105 3.06226 20.3732 3.06226 20.0898V17.2648C3.06226 17.1315 3.08726 17.0025 3.13726 16.8778C3.18726 16.7525 3.26226 16.6398 3.36226 16.5398L13.6623 6.23984L17.9123 10.4898L7.61226 20.7898C7.51226 20.8898 7.39992 20.9648 7.27526 21.0148C7.14992 21.0648 7.02059 21.0898 6.88726 21.0898H4.06226Z" fill="#8DB776"/>
</svg>
