<svg width="28" height="29" viewBox="0 0 28 29" fill="none" xmlns="http://www.w3.org/2000/svg">
<path fill-rule="evenodd" clip-rule="evenodd" d="M18.4087 19.9273L23.8368 18.3606C28.5681 16.9951 28.0667 21.0103 26.062 21.7728L18.4493 24.6686C17.2527 25.1237 15.6601 25.7986 14.3785 25.4204L10.334 24.227C9.74512 24.0533 9.18103 24.0988 8.62762 24.365L4.80039 26.2053L2.23633 19.9724C4.07986 19.1105 5.92896 18.2597 7.76107 17.3737C9.76023 16.4069 11.0362 15.9223 13.5303 17.7073L17.1978 18.7071C17.793 18.8693 18.244 19.3738 18.4087 19.9273Z" fill="#EFC7A4"/>
<path fill-rule="evenodd" clip-rule="evenodd" d="M18.1786 21.324C17.7779 21.9224 17.0233 22.2301 16.2927 22.0313L11.3266 20.6775C11.0125 20.5922 10.827 20.2685 10.9124 19.9545C10.9977 19.6405 11.3214 19.455 11.6354 19.5403L18.1786 21.324Z" fill="#D5A889"/>
<path fill-rule="evenodd" clip-rule="evenodd" d="M6.96769 27.2294L5.00591 28.0531C4.58029 28.2318 4.0874 28.0307 3.90828 27.6052C2.78873 24.9462 1.66917 22.2873 0.549624 19.6283C0.459917 19.4153 0.458745 19.2 0.54605 18.986C0.633354 18.7719 0.784819 18.619 0.997925 18.5295L2.9597 17.7059C3.38533 17.5272 3.87822 17.7283 4.05728 18.1537L7.41593 26.1307C7.50564 26.3437 7.50681 26.5589 7.41951 26.7729C7.33226 26.987 7.1808 27.1399 6.96769 27.2294Z" fill="#A9B0BB"/>
<path fill-rule="evenodd" clip-rule="evenodd" d="M14.4648 -0.0078125H19.2775C19.4389 -0.0078125 19.5705 0.123789 19.5705 0.285156V8.01063H21.2999C21.4143 8.01063 21.5123 8.07168 21.5628 8.17434C21.6133 8.27699 21.6018 8.39189 21.5319 8.48248L17.1031 14.2253C17.0458 14.2996 16.965 14.3393 16.8712 14.3393C16.7773 14.3393 16.6965 14.2996 16.6391 14.2253L12.2104 8.48248C12.1405 8.39189 12.1291 8.27699 12.1795 8.17434C12.23 8.07168 12.328 8.01063 12.4424 8.01063H14.1719V0.285156C14.1719 0.123789 14.3035 -0.0078125 14.4648 -0.0078125Z" fill="#C6EA94"/>
</svg>
