<svg width="30" height="31" viewBox="0 0 30 31" fill="none" xmlns="http://www.w3.org/2000/svg">
<g clip-path="url(#clip0_86_41952)">
<path d="M28.7301 12.0815L16.4195 0.592503C15.6511 -0.124584 14.4586 -0.124584 13.6903 0.592503L1.37988 12.0815V18.0546H28.7301V12.0815Z" fill="#FFA845"/>
<path d="M16.4197 0.59235C15.8954 0.102771 15.1732 -0.0521816 14.5234 0.126346C14.8258 0.209659 15.1124 0.364612 15.3563 0.59235L26.7656 11.2402C27.3406 11.7767 27.667 12.5279 27.667 13.3143V18.0544H28.7304V12.0813L16.4197 0.59235Z" fill="#FF8547"/>
<path d="M6.05469 25.0548V3.05467C6.05469 2.50238 6.50238 2.05469 7.05467 2.05469H23.0547C23.6069 2.05469 24.0546 2.50238 24.0546 3.05467V25.0548H6.05469Z" fill="#F5F4FA"/>
<path d="M23.0544 2.05469H21.666C22.2183 2.05469 22.666 2.50238 22.666 3.05467V25.0548H24.0544V3.05467C24.0544 2.50238 23.6067 2.05469 23.0544 2.05469Z" fill="#DAD7E0"/>
<path d="M1.05469 28.0552C1.05469 29.1598 1.95007 30.0552 3.05466 30.0552H27.0547C28.1593 30.0552 29.0547 29.1598 29.0547 28.0552V12.8197C29.0547 12.5279 28.9295 12.2649 28.7299 12.082C28.7297 12.082 16.4193 23.571 16.4193 23.571C15.6509 24.2881 14.4585 24.2881 13.6901 23.571L11.0159 21.0753L1.3797 12.082C1.17989 12.2647 1.05469 12.5277 1.05469 12.8197V28.0552Z" fill="#FFD149"/>
<path d="M26.0546 28.0547C26.6069 28.0547 27.0546 27.607 27.0546 27.0547C27.0546 26.5024 26.6069 26.0547 26.0546 26.0547H22.0547C21.5024 26.0547 21.0547 26.5024 21.0547 27.0547C21.0547 27.607 21.5024 28.0547 22.0547 28.0547H26.0546Z" fill="#E8E6EB"/>
<path d="M26.0544 26.0547H24.666C25.2183 26.0547 25.666 26.5024 25.666 27.0549C25.666 27.6072 25.2183 28.0549 24.666 28.0549H26.0544C26.6067 28.0549 27.0544 27.6072 27.0544 27.0549C27.0544 26.5024 26.6067 26.0547 26.0544 26.0547Z" fill="#C9CED4"/>
<path d="M28.7303 12.082C28.7303 12.082 28.3271 12.4583 27.667 13.0745V28.0552C27.667 29.1598 26.7716 30.0552 25.667 30.0552H27.0552C28.1597 30.0552 29.0551 29.1598 29.0551 28.0552V12.8197C29.0551 12.5277 28.9299 12.2649 28.7303 12.082Z" fill="#FFA845"/>
<path d="M20.0547 5.05469H10.0547C9.50238 5.05469 9.05469 5.50238 9.05469 6.05467V14.0546C9.05469 14.6068 9.50238 15.0548 10.0547 15.0548H12.9047C13.0006 15.0548 13.0928 15.0928 13.1608 15.1607L14.7985 16.7986C14.9399 16.9398 15.1693 16.9398 15.3107 16.7986L16.9486 15.1607C17.0163 15.0928 17.1086 15.0548 17.2047 15.0548H20.0545C20.6068 15.0548 21.0547 14.6068 21.0547 14.0546V6.05467C21.0547 5.50238 20.607 5.05469 20.0547 5.05469Z" fill="#49AAEF"/>
<path d="M15.0543 6.60156C13.8399 6.60156 12.8516 7.58965 12.8516 8.80432C12.8516 9.05426 13.0544 9.25682 13.3043 9.25682C13.5545 9.25682 13.757 9.05426 13.757 8.80432C13.757 8.08884 14.3391 7.50702 15.0543 7.50702C15.7698 7.50702 16.3516 8.08884 16.3516 8.80432C16.3516 9.51958 15.7698 10.1016 15.0543 10.1016C14.8044 10.1016 14.6016 10.3042 14.6016 10.5541V11.5541C14.6016 11.8043 14.8044 12.0068 15.0543 12.0068C15.3045 12.0068 15.507 11.8043 15.507 11.5541V10.9602C16.5052 10.7507 17.2571 9.86359 17.2571 8.80432C17.2571 7.58965 16.269 6.60156 15.0543 6.60156Z" fill="#F5F4FA"/>
<path d="M15.0543 12.3516C14.8044 12.3516 14.6016 12.5541 14.6016 12.8043V13.0542C14.6016 13.3042 14.8044 13.507 15.0543 13.507C15.3045 13.507 15.507 13.3042 15.507 13.0542V12.8043C15.507 12.5541 15.3045 12.3516 15.0543 12.3516Z" fill="#F5F4FA"/>
<path d="M20.0544 5.05469H18.666C19.2183 5.05469 19.666 5.50238 19.666 6.05467V14.0546C19.666 14.6068 19.2183 15.0545 18.666 15.0545H20.0544C20.6067 15.0545 21.0544 14.6068 21.0544 14.0546V6.05467C21.0544 5.50238 20.6067 5.05469 20.0544 5.05469Z" fill="#4088E6"/>
<path d="M15.5599 15.1609L14.3604 16.3605L14.7982 16.7985C14.9397 16.94 15.169 16.94 15.3104 16.7985L16.9483 15.1609C17.0161 15.0929 17.1083 15.0547 17.2044 15.0547H15.816C15.7199 15.0547 15.6279 15.0929 15.5599 15.1609Z" fill="#4088E6"/>
</g>
<defs>
<clipPath id="clip0_86_41952">
<rect width="30" height="30" fill="white" transform="translate(0 0.0546875)"/>
</clipPath>
</defs>
</svg>
