<svg width="67" height="70" viewBox="0 0 67 70" fill="none" xmlns="http://www.w3.org/2000/svg">
<mask id="path-1-outside-1_1_64641" maskUnits="userSpaceOnUse" x="0" y="0" width="56" height="70" fill="black">
<rect fill="white" width="56" height="70"/>
<path d="M35 3C30.0723 3 25.2112 4.13802 20.7956 6.32535C16.38 8.51268 12.5292 11.6902 9.5434 15.6103C6.55758 19.5303 4.51742 24.087 3.58193 28.925C2.64645 33.7631 2.84093 38.7518 4.15022 43.5024C5.4595 48.2529 7.84821 52.637 11.1301 56.3127C14.4121 59.9884 18.4986 62.8565 23.071 64.6934C27.6435 66.5304 32.5785 67.2865 37.4912 66.9029C42.4039 66.5193 47.1617 65.0063 51.3936 62.4818L35 35V3Z"/>
</mask>
<path d="M35 3C30.0723 3 25.2112 4.13802 20.7956 6.32535C16.38 8.51268 12.5292 11.6902 9.5434 15.6103C6.55758 19.5303 4.51742 24.087 3.58193 28.925C2.64645 33.7631 2.84093 38.7518 4.15022 43.5024C5.4595 48.2529 7.84821 52.637 11.1301 56.3127C14.4121 59.9884 18.4986 62.8565 23.071 64.6934C27.6435 66.5304 32.5785 67.2865 37.4912 66.9029C42.4039 66.5193 47.1617 65.0063 51.3936 62.4818L35 35V3Z" stroke="#5E44F8" stroke-width="6" mask="url(#path-1-outside-1_1_64641)"/>
<circle cx="35" cy="35" r="32" fill="white"/>
<circle cx="35" cy="35" r="25" fill="url(#paint0_linear_1_64641)"/>
<path d="M28 44C27.45 44 26.979 43.804 26.587 43.412C26.195 43.02 25.9993 42.5493 26 42V28C26 27.45 26.196 26.979 26.588 26.587C26.98 26.195 27.4507 25.9993 28 26H39L44 31V42C44 42.55 43.804 43.021 43.412 43.413C43.02 43.805 42.5493 44.0007 42 44H28ZM28 42H42V32H39C38.7167 32 38.479 31.904 38.287 31.712C38.095 31.52 37.9993 31.2827 38 31V28H28V42ZM31 40H39C39.2833 40 39.521 39.904 39.713 39.712C39.905 39.52 40.0007 39.2827 40 39C40 38.7167 39.904 38.479 39.712 38.287C39.52 38.095 39.2827 37.9993 39 38H31C30.7167 38 30.479 38.096 30.287 38.288C30.095 38.48 29.9993 38.7173 30 39C30 39.2833 30.096 39.521 30.288 39.713C30.48 39.905 30.7173 40.0007 31 40ZM31 32H34C34.2833 32 34.521 31.904 34.713 31.712C34.905 31.52 35.0007 31.2827 35 31C35 30.7167 34.904 30.479 34.712 30.287C34.52 30.095 34.2827 29.9993 34 30H31C30.7167 30 30.479 30.096 30.287 30.288C30.095 30.48 29.9993 30.7173 30 31C30 31.2833 30.096 31.521 30.288 31.713C30.48 31.905 30.7173 32.0007 31 32ZM31 36H39C39.2833 36 39.521 35.904 39.713 35.712C39.905 35.52 40.0007 35.2827 40 35C40 34.7167 39.904 34.479 39.712 34.287C39.52 34.095 39.2827 33.9993 39 34H31C30.7167 34 30.479 34.096 30.287 34.288C30.095 34.48 29.9993 34.7173 30 35C30 35.2833 30.096 35.521 30.288 35.713C30.48 35.905 30.7173 36.0007 31 36Z" fill="white"/>
<defs>
<linearGradient id="paint0_linear_1_64641" x1="35" y1="10" x2="35" y2="60" gradientUnits="userSpaceOnUse">
<stop stop-color="#5E44F8"/>
<stop offset="1" stop-color="#4F9AFF"/>
</linearGradient>
</defs>
</svg>
