<svg width="25" height="25" viewBox="0 0 25 25" fill="none" xmlns="http://www.w3.org/2000/svg">
<path d="M12.0254 4.51625C7.02539 4.50975 2.75135 7.6142 1.01564 12.0019C2.73994 16.3942 7.00589 19.5097 12.0059 19.5162C17.0059 19.5227 21.2799 16.4183 23.0156 12.0305C21.2913 7.63829 17.0254 4.52275 12.0254 4.51625ZM12.0091 17.0162C9.24914 17.0127 7.01205 14.7697 7.01564 12.0097C7.01923 9.24975 9.26213 7.01266 12.0221 7.01625C14.7821 7.01983 17.0192 9.26274 17.0156 12.0227C17.012 14.7827 14.7691 17.0198 12.0091 17.0162ZM12.0195 9.01624C10.3595 9.01409 9.01779 10.3523 9.01564 12.0123C9.01348 13.6723 10.3517 15.0141 12.0117 15.0162C13.6717 15.0184 15.0135 13.6801 15.0156 12.0201C15.0178 10.3601 13.6795 9.0184 12.0195 9.01624Z" fill="#5E44F8"/>
</svg>
